<svg xmlns="http://www.w3.org/2000/svg" viewBox="0 0 260 260" width="260" height="260"><g fill="#828282" fill-rule="nonzero"><path d="m141.72 137.8-24.842 24.723V90.891h24.842V137.8Z"/><path d="M160.75 127.341c6.842 7.538 11.012 17.547 11.012 28.529 0 23.452-19.012 42.463-42.463 42.463-23.452 0-42.462-19.011-42.462-42.463 0-10.982 4.169-20.991 11.012-28.529l-16.526-16.525c-11.065 11.778-17.855 27.619-17.855 45.054 0 36.359 29.474 65.832 65.831 65.832 36.358 0 65.832-29.473 65.832-65.832 0-17.435-6.79-33.276-17.857-45.054l-16.524 16.525Z"/><path d="M130 38.298c-73.69 0-114.908 54.527-130 97.858l20.096 5.328C33.504 108.732 67.584 58.746 130 58.746s96.496 49.986 109.904 82.738L260 136.156c-15.093-43.331-56.31-97.858-130-97.858"/></g></svg>