<svg xmlns="http://www.w3.org/2000/svg" xml:space="preserve" fill-rule="evenodd" stroke-linejoin="round" stroke-miterlimit="2" clip-rule="evenodd" viewBox="0 0 132 89"><path fill="#f57e29"  d="m10.93-.004-.774 11.727 5.828 6.3.102.04-8.5.371-7.699 8.875 37.16-.594L10.93-.004m121.261 54.93-18.058 13.125 5.883-16.75 12.175 3.625Z"/><path fill="#00b6c8"  d="m114.762 15.172-7.157 18.129-70.558-6.582 77.715-11.547Z"/><path fill="#f57e29"  d="M114.133 68.051 85.719 88.719l11.676-29.567 16.738 8.899Z"/><path fill="#005c97"  d="m107.035 33.129-69.988-6.41 64.922 19.242-5.121 12.894 17.285 9.196 5.945-16.871 5.754-16.352-18.797-1.699"/><path fill="#fefefe"  d="m37.051 26.719 65.476 19.414-5.144 13.019-60.332-32.429"/><path fill="#00b6c8" d="M97.395 59.152 85.719 88.719l-48.672-62 60.348 32.433Z"/></svg>