<svg xmlns="http://www.w3.org/2000/svg" viewBox="0 0 253.19 117.85"><defs><clipPath id="a"><path d="M72 101h8v16.852h-8Zm0 0"/></clipPath><clipPath id="b"><path d="M80 101h10v16.852H80Zm0 0"/></clipPath><clipPath id="c"><path d="M91 101h10v16.852H91Zm0 0"/></clipPath><clipPath id="d"><path d="M103 101h9v16.852h-9Zm0 0"/></clipPath><clipPath id="e"><path d="M113 101h10v16.852h-10Zm0 0"/></clipPath><clipPath id="f"><path d="M123 101h10v16.852h-10Zm0 0"/></clipPath><clipPath id="g"><path d="M132 101h9v16.852h-9Zm0 0"/></clipPath><clipPath id="h"><path d="M142 101h3v16.852h-3Zm0 0"/></clipPath><clipPath id="i"><path d="M146 101h10v16.852h-10Zm0 0"/></clipPath><clipPath id="j"><path d="M158 101h9v16.852h-9Zm0 0"/></clipPath><clipPath id="k"><path d="M235 51h18.191v18H235Zm0 0"/></clipPath></defs><path fill="#414042" d="M10.676 70.918h7.113L14.23 49.57ZM0 88.711l10.676-49.813h7.113l10.676 49.813h-7.117L18.68 76.258H9.785L7.117 88.71H0m43.45-5.339c.757 0 1.394-.277 1.902-.832.507-.559.878-1.348 1.113-2.379.23-1.027.387-2.047.469-3.058.086-1.008.129-2.192.129-3.543l-.055-4.7c0-.832-.008-1.504-.016-2.011a50.335 50.335 0 0 0-.097-2.032c-.055-.843-.133-1.53-.239-2.07a15.967 15.967 0 0 0-.457-1.777c-.203-.649-.449-1.16-.734-1.532a3.783 3.783 0 0 0-1.113-.945 3.068 3.068 0 0 0-1.543-.387 5.16 5.16 0 0 0-.793.055c-.25.035-.508.098-.778.18-.27.082-.492.156-.668.222a5.997 5.997 0 0 0-.68.32c-.28.15-.48.255-.597.321-.121.063-.328.188-.629.375-.293.184-.48.297-.555.332v22.016c1.633.965 3.41 1.445 5.34 1.445ZM30.991 99.383V53.129h7.117v3.559c.575-.614.973-1.032 1.196-1.254.222-.22.605-.563 1.156-1.028.547-.46 1.016-.785 1.418-.972.398-.184.906-.364 1.527-.543a7.065 7.065 0 0 1 1.934-.262c1.203 0 2.277.219 3.222.652.946.438 1.723.957 2.336 1.57.61.614 1.13 1.489 1.555 2.626.426 1.14.746 2.175.961 3.101.211.926.375 2.18.484 3.754.114 1.574.176 2.848.196 3.82.02.973.027 2.313.027 4.016v.531c0 1.555-.078 3.059-.234 4.504a27.536 27.536 0 0 1-.864 4.402c-.418 1.493-.945 2.786-1.582 3.88a7.968 7.968 0 0 1-2.558 2.683c-1.067.695-2.285 1.043-3.656 1.043-2.41 0-4.782-1.234-7.118-3.7v13.872h-7.117m39.161-16.012c.758 0 1.395-.277 1.903-.832.511-.559.879-1.348 1.113-2.379.23-1.027.387-2.047.473-3.058.082-1.008.125-2.192.125-3.543l-.055-4.7c0-.832-.004-1.504-.016-2.011a39.043 39.043 0 0 0-.097-2.032 17.708 17.708 0 0 0-.235-2.07 16.048 16.048 0 0 0-.46-1.777c-.204-.649-.45-1.16-.735-1.532a3.783 3.783 0 0 0-1.113-.945 3.068 3.068 0 0 0-1.543-.387 5.16 5.16 0 0 0-.793.055c-.25.035-.508.098-.778.18-.27.082-.492.156-.668.222a5.997 5.997 0 0 0-.68.32l-.597.321a10.06 10.06 0 0 0-.625.375 9.07 9.07 0 0 1-.555.332v22.016c1.63.965 3.407 1.445 5.336 1.445ZM57.7 99.383V53.129h7.117v3.559c.575-.614.97-1.032 1.196-1.254.218-.22.605-.563 1.152-1.028.547-.46 1.02-.785 1.418-.972.398-.184.906-.364 1.527-.543a7.065 7.065 0 0 1 1.934-.262c1.203 0 2.277.219 3.223.652.945.438 1.722.957 2.336 1.57.613.614 1.128 1.489 1.554 2.626.43 1.14.746 2.175.961 3.101.215.926.375 2.18.485 3.754.113 1.574.18 2.848.195 3.82.02.973.027 2.313.027 4.016v.531c0 1.555-.078 3.059-.234 4.504a27.536 27.536 0 0 1-.863 4.402c-.418 1.493-.946 2.786-1.582 3.88a7.968 7.968 0 0 1-2.56 2.683c-1.065.695-2.284 1.043-3.655 1.043-2.407 0-4.782-1.234-7.114-3.7v13.872H57.7M91.23 67.36h7.063v-2.141a22.674 22.674 0 0 0-.168-2.473 11.858 11.858 0 0 0-.484-2.113c-.235-.703-.59-1.242-1.07-1.61-.485-.37-1.079-.558-1.782-.558-.723 0-1.328.195-1.82.586-.492.386-.852.949-1.082 1.68a12.05 12.05 0 0 0-.489 2.156 23 23 0 0 0-.168 2.527Zm3.504 21.85c-1.722 0-3.218-.296-4.492-.89-1.27-.593-2.277-1.367-3.027-2.32-.75-.957-1.36-2.18-1.82-3.672a24.735 24.735 0 0 1-.961-4.473c-.176-1.492-.282-3.23-.32-5.21a66.54 66.54 0 0 1 0-4.672c.058-1.856.183-3.5.374-4.934a20.83 20.83 0 0 1 1.016-4.184c.48-1.351 1.11-2.464 1.879-3.335.77-.872 1.777-1.57 3.027-2.098 1.25-.531 2.711-.793 4.38-.793 1.519 0 2.858.2 4.015.598 1.16.398 2.125 1 2.89 1.804a11.65 11.65 0 0 1 1.918 2.684c.512.984.895 2.172 1.157 3.57a40.45 40.45 0 0 1 .543 4.13 65.83 65.83 0 0 1 .152 4.67v.833H91.23v2.921a23.82 23.82 0 0 0-.011 2.126c.027.73.058 1.45.097 2.152a9.83 9.83 0 0 0 .305 2.016c.164.64.371 1.203.61 1.683.242.48.578.86 1.015 1.141.434.277.95.414 1.543.414.742 0 1.352-.144 1.836-.43.48-.285.836-.718 1.07-1.293a7.94 7.94 0 0 0 .485-1.722c.093-.574.148-1.297.168-2.168v-1.5h7.058v1.414c-.164 3.8-1.101 6.672-2.804 8.617-1.707 1.945-4.329 2.922-7.868 2.922m13.911-.501V53.13h7.117v4.754c.722-1.41 1.773-2.637 3.156-3.684 1.379-1.047 2.914-1.57 4.602-1.57.054 0 .433.035 1.136.11v7.866c-1.312-.52-2.629-.777-3.945-.777-1.484 0-2.68.445-3.586 1.332-.906.89-1.363 2.067-1.363 3.531v24.02h-7.117m29.14.498c-2.8 0-4.832-.714-6.101-2.14-1.27-1.425-1.922-3.586-1.961-6.476v-22.13h-3.559V53.13h3.559V40.676h7.117v12.453h5.336v5.336h-5.336V79.23c0 1.426.195 2.473.582 3.141.39.668 1.18 1 2.363 1 .52 0 1.317-.09 2.39-.277v5.781c-1.777.223-3.241.336-4.39.336m17.781-5.84c.5 0 .989-.148 1.457-.445.473-.293.832-.582 1.07-.86.243-.28.54-.648.891-1.113a.978.978 0 0 1 .141-.195v-9.84c-.297.203-.79.52-1.477.945-.683.426-1.23.774-1.636 1.043-.41.27-.903.64-1.477 1.114-.57.472-1.015.925-1.332 1.359-.316.437-.594.969-.836 1.598a5.554 5.554 0 0 0-.36 1.976c0 2.945 1.184 4.418 3.56 4.418Zm-3.558 5.84c-1.985 0-3.664-.86-5.043-2.574-1.383-1.715-2.074-3.645-2.074-5.793 0-1.727.293-3.29.879-4.7.582-1.41 1.199-2.535 1.843-3.374.653-.844 1.735-1.715 3.254-2.614 1.52-.898 2.668-1.515 3.446-1.851.78-.332 2.132-.88 4.058-1.64.336-.13.586-.231.754-.306v-2.558c0-1.797-.254-3.192-.754-4.184-.5-.988-1.434-1.484-2.805-1.484-1.222 0-2.097.422-2.629 1.265-.527.84-.828 2.004-.902 3.489-.02.203-.027.508-.027.914h-7.117c.039-3.406.992-6.125 2.863-8.145 1.871-2.02 4.476-3.027 7.812-3.027 3.317 0 5.926 1.023 7.825 3.07 1.898 2.047 2.847 4.75 2.847 8.102v16.011c0 3.708.309 6.672.918 8.899h-7.09l-.941-5.34a39.483 39.483 0 0 1-.902 1.723c-.235.41-.575.914-1.016 1.515-.445.606-.89 1.067-1.336 1.391-.445.324-1 .605-1.668.848a6.392 6.392 0 0 1-2.195.363"/><g clip-path="url(#a)"><path fill="#808285" d="M72.887 117.68v-16.051h6.308v1.719H75.18v5.16h2.867v1.719H75.18v7.453h-2.293"/></g><g clip-path="url(#b)"><path fill="#808285" d="M83.262 115.234c.304.485.863.727 1.668.727.808 0 1.363-.242 1.672-.727.308-.484.46-1.195.46-2.14v-6.969c0-.934-.152-1.629-.457-2.09-.304-.457-.863-.687-1.675-.687-.813 0-1.371.23-1.676.687-.305.461-.457 1.156-.457 2.09v6.969c0 .945.156 1.656.465 2.14Zm1.668 2.606c-.805 0-1.496-.121-2.075-.367a3.174 3.174 0 0 1-1.375-1.075 4.739 4.739 0 0 1-.742-1.66c-.156-.636-.234-1.375-.234-2.218v-5.82c0-.845.078-1.579.234-2.208a4.602 4.602 0 0 1 .742-1.633c.34-.46.801-.812 1.375-1.043.579-.234 1.27-.347 2.075-.347 1.566 0 2.695.445 3.386 1.34.692.898 1.04 2.195 1.04 3.89v5.82c0 .833-.079 1.563-.239 2.2a4.816 4.816 0 0 1-.746 1.668c-.34.472-.8.836-1.375 1.082-.578.25-1.266.37-2.066.37"/></g><g clip-path="url(#c)"><path fill="#808285" d="M98.035 117.574c-.531.184-1.144.278-1.844.278-.699 0-1.316-.094-1.847-.278-.531-.187-.969-.445-1.313-.777a3.752 3.752 0 0 1-.836-1.25 6.688 6.688 0 0 1-.457-1.625 13.046 13.046 0 0 1-.136-1.977V101.63h2.296v10.316c0 .496.008.914.032 1.246.02.336.074.692.164 1.07.09.38.215.684.37.91.161.227.384.415.673.567.289.149.64.223 1.054.223.41 0 .762-.074 1.051-.223.29-.152.516-.34.672-.566.16-.227.281-.531.371-.91a6.64 6.64 0 0 0 .168-1.07c.02-.333.031-.75.031-1.247V101.63h2.293v10.316c0 .735-.047 1.395-.136 1.977a6.688 6.688 0 0 1-.457 1.625 3.752 3.752 0 0 1-.836 1.25c-.344.332-.782.59-1.313.777"/></g><g clip-path="url(#d)"><path fill="#808285" d="M103.313 117.68v-16.051h1.718l4.012 9.926v-9.926h2.293v16.05h-1.629l-4.102-10.675v10.676h-2.293"/></g><g clip-path="url(#e)"><path fill="#808285" d="M116.29 115.96h1.265c.375 0 .699-.034.965-.105a1.28 1.28 0 0 0 .656-.375c.168-.18.297-.355.394-.52.094-.163.16-.417.2-.765.039-.347.062-.632.07-.855.004-.223.008-.57.008-1.043v-5.508c0-.293-.004-.527-.004-.7-.004-.175-.016-.378-.028-.612a3.752 3.752 0 0 0-.195-1.024 1.09 1.09 0 0 0-.2-.398 3.033 3.033 0 0 0-.296-.297 1.125 1.125 0 0 0-.402-.235 3.983 3.983 0 0 0-1.215-.176h-1.219Zm-2.294 1.72v-16.051h3.559c1.675 0 2.86.344 3.55 1.027.692.688 1.036 1.875 1.036 3.559v6.305c0 1.761-.352 3.062-1.055 3.902-.7.84-1.883 1.258-3.55 1.258h-3.54"/></g><g clip-path="url(#f)"><path fill="#808285" d="M126.664 111.945h2.293l-1.148-6.879Zm-3.441 5.735 3.441-16.051h2.293l3.438 16.05h-2.293l-.86-4.011h-2.863l-.863 4.012h-2.293"/></g><g clip-path="url(#g)"><path fill="#808285" d="M135.316 117.68v-14.008h-2.867v-2.043h8.028v2.043h-2.868v14.008h-2.293"/></g><g clip-path="url(#h)"><path fill="#808285" d="M142.086 117.68v-16.051h2.297v16.05h-2.297"/></g><g clip-path="url(#i)"><path fill="#808285" d="M149.672 115.234c.305.485.863.727 1.668.727.808 0 1.363-.242 1.672-.727.308-.484.46-1.195.46-2.14v-6.969c0-.934-.152-1.629-.456-2.09-.305-.457-.864-.687-1.676-.687-.813 0-1.371.23-1.676.687-.3.461-.453 1.156-.453 2.09v6.969c0 .945.152 1.656.46 2.14Zm1.668 2.606c-.805 0-1.496-.121-2.074-.367a3.163 3.163 0 0 1-1.371-1.075 4.675 4.675 0 0 1-.747-1.66c-.156-.636-.234-1.375-.234-2.218v-5.82c0-.845.078-1.579.234-2.208.157-.625.403-1.172.747-1.633a3.1 3.1 0 0 1 1.37-1.043c.579-.234 1.27-.347 2.075-.347 1.566 0 2.695.445 3.387 1.34.695.898 1.039 2.195 1.039 3.89v5.82c0 .833-.078 1.563-.239 2.2a4.816 4.816 0 0 1-.746 1.668c-.34.472-.8.836-1.375 1.082-.578.25-1.265.37-2.066.37"/></g><g clip-path="url(#j)"><path fill="#808285" d="M158.14 117.68v-16.051h1.72l4.011 9.926v-9.926h2.293v16.05h-1.629l-4.101-10.675v10.676h-2.293"/></g><path fill="#f57f29" d="m131.93-.004-.774 11.727 5.828 6.3.102.04-8.5.37-7.7 8.876 37.16-.594L131.93-.004"/><g clip-path="url(#k)"><path fill="#f57f29" d="M253.191 54.926 235.133 68.05l5.883-16.75Zm0 0"/></g><path fill="#00b6c9" d="M235.762 15.172 228.605 33.3l-70.558-6.582Zm0 0"/><path fill="#f57f29" d="m235.133 68.05-28.414 20.67 11.676-29.567Zm0 0"/><path fill="#005c98" d="m228.035 33.129-69.988-6.41 64.922 19.242-5.121 12.894 17.285 9.196 5.945-16.871 5.754-16.352-18.797-1.7"/><path fill="#fff" d="m158.05 26.719 65.477 19.414-5.144 13.02-60.332-32.43"/><path fill="#00b6c9" d="M218.395 59.152 206.719 88.72l-48.672-62Zm0 0"/></svg>